<?xml version="1.0" encoding="UTF-8" standalone="no"?>
<!-- Generator: Adobe Illustrator 23.0.0, SVG Export Plug-In . SVG Version: 6.00 Build 0)  -->

<svg
   xmlns:dc="http://purl.org/dc/elements/1.1/"
   xmlns:cc="http://creativecommons.org/ns#"
   xmlns:rdf="http://www.w3.org/1999/02/22-rdf-syntax-ns#"
   xmlns:svg="http://www.w3.org/2000/svg"
   xmlns="http://www.w3.org/2000/svg"
   xmlns:sodipodi="http://sodipodi.sourceforge.net/DTD/sodipodi-0.dtd"
   xmlns:inkscape="http://www.inkscape.org/namespaces/inkscape"
   version="1.1"
   id="Layer_1"
   x="0px"
   y="0px"
   viewBox="0 0 512 512"
   style="enable-background:new 0 0 512 512;"
   xml:space="preserve"
   sodipodi:docname="loupe.svg"
   inkscape:version="0.92.5 (2060ec1f9f, 2020-04-08)"><metadata
   id="metadata23"><rdf:RDF><cc:Work
       rdf:about=""><dc:format>image/svg+xml</dc:format><dc:type
         rdf:resource="http://purl.org/dc/dcmitype/StillImage" /></cc:Work></rdf:RDF></metadata><defs
   id="defs21" /><sodipodi:namedview
   pagecolor="#ffffff"
   bordercolor="#666666"
   borderopacity="1"
   objecttolerance="10"
   gridtolerance="10"
   guidetolerance="10"
   inkscape:pageopacity="0"
   inkscape:pageshadow="2"
   inkscape:window-width="1920"
   inkscape:window-height="1050"
   id="namedview19"
   showgrid="false"
   inkscape:zoom="0.4609375"
   inkscape:cx="256"
   inkscape:cy="256"
   inkscape:window-x="0"
   inkscape:window-y="30"
   inkscape:window-maximized="1"
   inkscape:current-layer="Layer_1" />
<g
   id="g16"
   style="fill:#ffffff">
	<g
   id="g14"
   style="fill:#ffffff">
		<g
   id="g12"
   style="fill:#ffffff">
			<path
   d="M270.6,104.9c-3.3-3.3-8.7-3.3-12.1,0c-3.3,3.3-3.3,8.7,0,12.1l34.1,34.1c1.7,1.7,3.8,2.5,6,2.5s4.4-0.8,6-2.5     c3.3-3.3,3.3-8.7,0-12.1L270.6,104.9z"
   id="path2"
   style="fill:#ffffff" />
			<path
   d="M219.4,122c-3.3-3.3-8.7-3.3-12.1,0s-3.3,8.7,0,12.1l68.3,68.3c1.7,1.7,3.8,2.5,6,2.5s4.4-0.8,6-2.5     c3.3-3.3,3.3-8.7,0-12.1L219.4,122z"
   id="path4"
   style="fill:#ffffff" />
			<path
   d="M366.5,330.3l37.9,37.9c1.7,1.7,3.8,2.5,6,2.5s4.4-0.8,6-2.5c3.3-3.3,3.3-8.7,0-12.1l-40-40     c20.9-32.1,33.1-70.3,33.1-111.4C409.6,91.9,317.7,0,204.8,0S0,91.9,0,204.8s91.9,204.8,204.8,204.8     C270.5,409.6,329,378.5,366.5,330.3z M204.8,392.5c-103.5,0-187.7-84.2-187.7-187.7S101.3,17.1,204.8,17.1     s187.7,84.2,187.7,187.7S308.3,392.5,204.8,392.5z"
   id="path6"
   style="fill:#ffffff" />
			<path
   d="M204.8,34.1c-94.1,0-170.7,76.6-170.7,170.7s76.6,170.7,170.7,170.7s170.7-76.6,170.7-170.7S298.9,34.1,204.8,34.1z      M204.8,358.4c-84.7,0-153.6-68.9-153.6-153.6S120.1,51.2,204.8,51.2s153.6,68.9,153.6,153.6S289.5,358.4,204.8,358.4z"
   id="path8"
   style="fill:#ffffff" />
			<path
   d="M499.5,439.2l-59.8-59.8c-1.6-1.6-3.8-2.5-6-2.5l0,0c-2.3,0-4.4,0.9-6,2.5l-24.1,24.2c-3.3,3.3-3.3,8.7,0,12.1     s8.7,3.3,12.1,0l18-18.1l53.8,53.7c4.8,4.8,7.5,11.3,7.5,18.1c0,6.8-2.7,13.3-7.5,18.1c-10,10-26.2,10-36.2,0L350.1,386.3     c-3.3-3.3-8.7-3.3-12.1,0c-3.3,3.3-3.3,8.7,0,12.1l101.1,101.1c8.3,8.3,19.2,12.5,30.2,12.5s21.9-4.2,30.2-12.5     c8.1-8.1,12.5-18.8,12.5-30.2C512,458,507.6,447.2,499.5,439.2z"
   id="path10"
   style="fill:#ffffff" />
		</g>
	</g>
</g>
</svg>